<?xml version='1.0' encoding='iso-8859-1'?>
<!DOCTYPE svg PUBLIC '-//W3C//DTD SVG 1.1//EN' 'http://www.w3.org/Graphics/SVG/1.1/DTD/svg11.dtd'>
<!-- Uploaded to: SVG Repo, www.svgrepo.com, Generator: SVG Repo Mixer Tools -->
<svg fill="#000000" height="800px" width="800px" version="1.1" xmlns="http://www.w3.org/2000/svg" viewBox="0 0 452.359 452.359" xmlns:xlink="http://www.w3.org/1999/xlink" enable-background="new 0 0 452.359 452.359">
  <g>
    <path d="m430.178,22.181c-15.566-15.567-37.082-23.575-59.046-21.981-21.957,1.598-42.092,12.642-55.241,30.299l-46.663,62.663c-3.049,4.095-7.718,6.656-12.81,7.026-5.092,0.367-10.082-1.487-13.692-5.098l-48.923-48.922c-7.094-7.095-16.526-11.002-26.56-11.002s-19.466,3.907-26.56,11.001l-137.754,137.756c-3.905,3.905-3.905,10.237-2.22045e-15,14.143 3.906,3.904 10.236,3.904 14.143,0l92.626-92.626 15.554,15.554-92.626,92.626c-2.929,2.929-2.929,7.678 0,10.606 1.465,1.465 3.384,2.197 5.304,2.197 1.919,0 3.839-0.732 5.304-2.197l92.626-92.625 17.323,17.323-92.628,92.626c-2.929,2.929-2.929,7.678-7.10543e-15,10.606 1.465,1.464 3.385,2.197 5.304,2.197s3.839-0.732 5.304-2.197l92.626-92.626 17.322,17.322-92.625,92.626c-2.929,2.929-2.929,7.678 0,10.606 1.465,1.464 3.384,2.197 5.304,2.197 1.919,0 3.839-0.732 5.304-2.197l92.625-92.626 17.323,17.323-92.626,92.626c-2.929,2.929-2.929,7.678 0,10.606 1.465,1.465 3.384,2.197 5.304,2.197 1.919,0 3.839-0.732 5.304-2.197l92.626-92.626 17.322,17.323-92.626,92.626c-2.929,2.929-2.929,7.678 0,10.606 1.465,1.465 3.384,2.197 5.304,2.197 1.919,0 3.839-0.732 5.304-2.197l92.625-92.625 17.322,17.322-92.626,92.626c-2.929,2.929-2.929,7.678 0,10.606 1.465,1.464 3.385,2.197 5.304,2.197s3.839-0.732 5.304-2.197l92.626-92.626 17.323,17.323-92.626,92.626c-2.929,2.929-2.929,7.678 0,10.606 1.465,1.464 3.385,2.197 5.304,2.197s3.839-0.732 5.304-2.197l92.625-92.625 17.322,17.322-92.625,92.626c-2.929,2.929-2.929,7.678 0,10.606 1.465,1.464 3.385,2.197 5.304,2.197s3.839-0.732 5.304-2.197l92.625-92.625 15.555,15.555-92.626,92.625c-3.905,3.905-3.905,10.237 0,14.142 1.953,1.953 4.512,2.929 7.071,2.929 2.559,0 5.119-0.977 7.071-2.929l137.75-137.751c7.095-7.094 11.002-16.527 11.002-26.56s-3.907-19.466-11.002-26.56l-48.923-48.922c-3.61-3.61-5.468-8.601-5.098-13.692 0.371-5.092 2.933-9.761 7.027-12.81l62.662-46.663c17.657-13.149 28.701-33.284 30.3-55.241 1.598-21.958-6.414-43.479-21.98-59.046zm2.033,57.593c-1.177,16.159-9.304,30.976-22.298,40.652l-62.662,46.663c-8.758,6.521-14.236,16.508-15.029,27.399-0.792,10.891 3.182,21.565 10.902,29.287l48.923,48.922c3.317,3.317 5.145,7.727 5.145,12.417s-1.827,9.101-5.145,12.417l-30.986,30.986-237.221-237.219 30.987-30.987c3.316-3.317 7.727-5.144 12.417-5.144s9.101,1.827 12.417,5.144l48.923,48.922c7.721,7.721 18.388,11.692 29.286,10.902 10.891-0.793 20.878-6.271 27.399-15.028l46.663-62.663c9.677-12.994 24.493-21.121 40.652-22.297 16.152-1.179 31.996,4.72 43.451,16.176 11.456,11.456 17.352,27.293 16.176,43.451z"/>
    <path d="m356.641,54c-11.501,11.501-11.501,30.216 0,41.718 5.751,5.75 13.306,8.625 20.859,8.625s15.108-2.875 20.859-8.625c11.501-11.501 11.501-30.216 0-41.718-11.5-11.501-30.215-11.502-41.718,0zm27.576,27.575c-3.703,3.704-9.73,3.704-13.434,0-3.703-3.704-3.703-9.73 0-13.434 1.852-1.852 4.284-2.778 6.717-2.778s4.865,0.926 6.717,2.777c3.703,3.705 3.703,9.732 5.68434e-14,13.435z"/>
  </g>
</svg>